<svg version="1" xmlns="http://www.w3.org/2000/svg" width="2730.667" height="2730.667" viewBox="0 0 2048.000000 2048.000000"><path d="M391 1C210.6 9 55.7 136.3 12.5 312c-7 28.5-10.1 51-11.5 82-1.3 29-1.3 1231 0 1260 1.4 31 4.5 53.5 11.5 82 36.2 147.5 152 263.3 299.5 299.5 29.5 7.2 51.2 10.2 85 11.6 36.8 1.5 1264.2.6 1277.5-.9 31.1-3.7 54.6-8.2 78.8-15.3 102.8-30.1 189.5-99.2 241.9-192.7 30.9-55 48.1-114.7 51.8-179.2 1.3-23.4 1.3-1235.3 0-1265-1.4-31-4.5-53.5-11.5-82-36.2-147.5-152-263.3-299.5-299.5-28.5-7-51-10.1-82-11.5C1628.8-.1 416.6-.1 391 1zm846.6 549.2c-15.7 31-116.9 230.7-225 443.8l-196.5 387.5-58.6.3c-32.2.1-58.5 0-58.5-.3s5.8-11.9 12.9-25.8c12.4-24.3 93.8-185.4 160.3-317.3 17.8-35.2 87-172.1 153.8-304.2L1147.5 494h118.6l-28.5 56.2zM652.8 727.1l-.3 66.2L444.2 868c-114.5 41.1-208.4 74.9-208.7 75.1-.2.3 72.8 26.5 162.3 58.4 89.5 31.8 183.5 65.3 209 74.3l46.2 16.5v65.8c0 36.3-.2 65.9-.5 65.9-.2 0-125.3-49.1-277.9-109-152.6-60-277.9-109-278.5-109-.8 0-1-17.8-.9-63.1l.3-63.1L373 770.5c152.6-60.2 278.1-109.4 278.8-109.4 1-.1 1.2 13.4 1 66zM1676 770.9l276.5 108.9v125.6l-278 109.3c-152.9 60.1-278.3 109.2-278.7 109.3-.5 0-.8-29.6-.8-65.9v-65.8l63.3-22.5c34.7-12.4 128.8-45.9 208.9-74.4 80.2-28.5 145.5-52 145.2-52.3-.2-.3-94.2-34.1-208.7-75.2l-208.2-74.7-.3-66.2-.2-66.2 2.2.6c1.3.3 126.7 49.6 278.8 109.5z"/></svg>