<svg aria-hidden="true" style="position: absolute; width: 0; height: 0; overflow: hidden;" version="1.1" xmlns="http://www.w3.org/2000/svg" xmlns:xlink="http://www.w3.org/1999/xlink">
<defs>
<symbol id="icon-envelop" viewBox="0 0 32 32">
<path d="M29 4h-26c-1.65 0-3 1.35-3 3v20c0 1.65 1.35 3 3 3h26c1.65 0 3-1.35 3-3v-20c0-1.65-1.35-3-3-3zM12.461 17.199l-8.461 6.59v-15.676l8.461 9.086zM5.512 8h20.976l-10.488 7.875-10.488-7.875zM12.79 17.553l3.21 3.447 3.21-3.447 6.58 8.447h-19.579l6.58-8.447zM19.539 17.199l8.461-9.086v15.676l-8.461-6.59z"></path>
</symbol>
<symbol id="icon-location" viewBox="0 0 32 32">
<path d="M16 0c-5.523 0-10 4.477-10 10 0 10 10 22 10 22s10-12 10-22c0-5.523-4.477-10-10-10zM16 16c-3.314 0-6-2.686-6-6s2.686-6 6-6 6 2.686 6 6-2.686 6-6 6z"></path>
</symbol>
<symbol id="icon-new-tab" viewBox="0 0 32 32">
<path d="M6 2v24h24v-24h-24zM28 24h-20v-20h20v20zM4 28v-21l-2-2v25h25l-2-2h-21z"></path>
<path d="M11 8l5 5-6 6 3 3 6-6 5 5v-13z"></path>
</symbol>
<symbol id="icon-vk1" viewBox="0 0 32 32">
<path d="M29 0h-26c-1.65 0-3 1.35-3 3v26c0 1.65 1.35 3 3 3h26c1.65 0 3-1.35 3-3v-26c0-1.65-1.35-3-3-3zM25.919 22.4l-2.925 0.044c0 0-0.631 0.125-1.456-0.444-1.094-0.75-2.125-2.706-2.931-2.45-0.813 0.256-0.788 2.012-0.788 2.012s0.006 0.375-0.181 0.575c-0.2 0.219-0.6 0.262-0.6 0.262h-1.306c0 0-2.888 0.175-5.431-2.475-2.775-2.887-5.225-8.619-5.225-8.619s-0.144-0.375 0.013-0.556c0.175-0.206 0.644-0.219 0.644-0.219l3.131-0.019c0 0 0.294 0.050 0.506 0.206 0.175 0.125 0.269 0.369 0.269 0.369s0.506 1.281 1.175 2.438c1.306 2.256 1.919 2.75 2.362 2.513 0.644-0.35 0.45-3.194 0.45-3.194s0.012-1.031-0.325-1.488c-0.262-0.356-0.756-0.463-0.969-0.488-0.175-0.025 0.113-0.431 0.488-0.619 0.563-0.275 1.556-0.294 2.731-0.281 0.913 0.006 1.181 0.069 1.538 0.15 1.081 0.262 0.712 1.269 0.712 3.681 0 0.775-0.137 1.863 0.419 2.219 0.238 0.156 0.825 0.025 2.294-2.469 0.694-1.181 1.219-2.569 1.219-2.569s0.113-0.25 0.288-0.356c0.181-0.106 0.425-0.075 0.425-0.075l3.294-0.019c0 0 0.988-0.119 1.15 0.331 0.169 0.469-0.369 1.563-1.712 3.356-2.206 2.944-2.456 2.669-0.619 4.369 1.75 1.625 2.113 2.419 2.175 2.519 0.712 1.2-0.813 1.294-0.813 1.294z"></path>
</symbol>
<symbol id="icon-github" viewBox="0 0 32 32">
<path d="M16 0.395c-8.836 0-16 7.163-16 16 0 7.069 4.585 13.067 10.942 15.182 0.8 0.148 1.094-0.347 1.094-0.77 0-0.381-0.015-1.642-0.022-2.979-4.452 0.968-5.391-1.888-5.391-1.888-0.728-1.849-1.776-2.341-1.776-2.341-1.452-0.993 0.11-0.973 0.11-0.973 1.606 0.113 2.452 1.649 2.452 1.649 1.427 2.446 3.743 1.739 4.656 1.33 0.143-1.034 0.558-1.74 1.016-2.14-3.554-0.404-7.29-1.777-7.29-7.907 0-1.747 0.625-3.174 1.649-4.295-0.166-0.403-0.714-2.030 0.155-4.234 0 0 1.344-0.43 4.401 1.64 1.276-0.355 2.645-0.532 4.005-0.539 1.359 0.006 2.729 0.184 4.008 0.539 3.054-2.070 4.395-1.64 4.395-1.64 0.871 2.204 0.323 3.831 0.157 4.234 1.026 1.12 1.647 2.548 1.647 4.295 0 6.145-3.743 7.498-7.306 7.895 0.574 0.497 1.085 1.47 1.085 2.963 0 2.141-0.019 3.864-0.019 4.391 0 0.426 0.288 0.925 1.099 0.768 6.354-2.118 10.933-8.113 10.933-15.18 0-8.837-7.164-16-16-16z"></path>
</symbol>
<symbol id="icon-linkedin2" viewBox="0 0 32 32">
<path d="M12 12h5.535v2.837h0.079c0.77-1.381 2.655-2.837 5.464-2.837 5.842 0 6.922 3.637 6.922 8.367v9.633h-5.769v-8.54c0-2.037-0.042-4.657-3.001-4.657-3.005 0-3.463 2.218-3.463 4.509v8.688h-5.767v-18z"></path>
<path d="M2 12h6v18h-6v-18z"></path>
<path d="M8 7c0 1.657-1.343 3-3 3s-3-1.343-3-3c0-1.657 1.343-3 3-3s3 1.343 3 3z"></path>
</symbol>
<symbol id="icon-xing2" viewBox="0 0 32 32">
<path d="M4.862 6.319c-0.275 0-0.513 0.1-0.631 0.287-0.119 0.2-0.1 0.45 0.025 0.706l3.119 5.4c0.006 0.012 0.006 0.019 0 0.025l-4.9 8.662c-0.125 0.256-0.119 0.512 0 0.706 0.119 0.188 0.325 0.313 0.6 0.313h4.613c0.688 0 1.025-0.469 1.256-0.894 0 0 4.794-8.481 4.981-8.813-0.019-0.031-3.175-5.531-3.175-5.531-0.231-0.406-0.575-0.862-1.287-0.862h-4.6z"></path>
<path d="M24.25 0c-0.688 0-0.988 0.431-1.238 0.881 0 0-9.944 17.631-10.269 18.212 0.019 0.031 6.556 12.031 6.556 12.031 0.231 0.406 0.581 0.881 1.288 0.881h4.613c0.275 0 0.494-0.106 0.613-0.294 0.125-0.2 0.119-0.456-0.012-0.712l-6.5-11.894c-0.006-0.012-0.006-0.019 0-0.031l10.219-18.069c0.125-0.256 0.131-0.512 0.012-0.713-0.119-0.188-0.337-0.294-0.613-0.294h-4.669z"></path>
</symbol>
</defs>
</svg>
