<svg
    width="320"
    height="180"
    viewBox="0 0 297 42"
    fill="none"
    xmlns="http://www.w3.org/2000/svg">
    <g clip-path="url(#clip_ng)" style="transform: translateX(10px)">
        <path
            d="M68.8904 31.5955H66.4093L56.2641 12.1823C56.4331 14.7957 56.5173 17.2646 56.5173 19.584V31.5955H54.7253V10.113H57.1439L67.352 29.5256C67.1858 27.1004 67.101 24.9791 67.101 23.1603V10.113H68.8904V31.5955Z"
            fill="#005ea9" />
        <path
            d="M91.5062 10.113L91.285 11.6818H82.4593V19.6788H90.0925V21.2461H82.4593V30.0265H91.7246V31.5955H80.5745V10.113H91.5062Z"
            fill="#005ea9" />
        <path
            d="M113.114 10.113L112.896 11.7746H106.583V31.5955H104.729V11.7746H98.3528V10.113H113.114Z"
            fill="#005ea9" />
        <path
            d="M131.269 10.2849C132.17 10.6305 133.08 11.1687 134.003 11.9001L132.872 13.0931C132.097 12.4866 131.342 12.0466 130.61 11.7747C129.877 11.5049 129.041 11.3673 128.098 11.3673C126.862 11.3673 125.715 11.6928 124.659 12.3405C123.6 12.9876 122.741 14.0181 122.083 15.4289C121.423 16.8402 121.094 18.6219 121.094 20.7756C121.094 23.9756 121.701 26.3691 122.916 27.9573C124.129 29.5469 125.825 30.3414 128.003 30.3414C129.678 30.3414 131.187 29.9643 132.527 29.213V21.591H128.317L128.098 20.0222H134.379V30.1842C132.327 31.356 130.201 31.9407 128.003 31.9407C125.261 31.9407 123.093 30.9889 121.502 29.0862C119.91 27.1843 119.113 24.4142 119.113 20.7756C119.113 18.4125 119.528 16.4005 120.356 14.7388C121.181 13.0772 122.281 11.834 123.654 11.0073C125.024 10.1811 126.505 9.7679 128.098 9.7679C129.311 9.7679 130.37 9.94158 131.269 10.2849Z"
            fill="#005ea9" />
        <path
            d="M146.534 10.113V31.5955H144.65V10.113H146.534Z"
            fill="#005ea9" />
        <path
            d="M172.382 31.5955H169.902L159.757 12.1823C159.925 14.7957 160.009 17.2646 160.009 19.584V31.5955H158.218V10.113H160.637L170.844 29.5256C170.678 27.1004 170.594 24.9791 170.594 23.1603V10.113H172.382V31.5955Z"
            fill="#005ea9" />
        <path
            d="M194.998 10.113L194.778 11.6818H185.951V19.6788H193.584V21.2461H185.951V30.0265H195.217V31.5955H184.066V10.113H194.998Z"
            fill="#005ea9" />
        <path
            d="M215.792 10.113L215.572 11.6818H206.745V19.6788H214.378V21.2461H206.745V30.0265H216.011V31.5955H204.86V10.113H215.792Z"
            fill="#005ea9" />
        <path
            d="M231.12 20.4301C234.72 20.4301 236.521 18.9369 236.521 15.9463C236.521 14.483 236.071 13.4008 235.173 12.7013C234.271 12.0004 232.817 11.6494 230.806 11.6494H227.538V20.4301H231.12ZM231.842 21.9668H227.538V31.5955H225.653V10.113H230.869C235.976 10.113 238.532 12.0573 238.532 15.9463C238.532 17.4934 238.125 18.7275 237.308 19.6469C236.491 20.5661 235.298 21.2262 233.726 21.6232L239.631 31.5955H237.4L231.842 21.9668Z"
            fill="#005ea9" />
        <path
            d="M257.017 10.3493C257.968 10.7358 258.896 11.3369 259.796 12.152L258.697 13.3437C257.88 12.653 257.083 12.152 256.309 11.8375C255.536 11.5244 254.656 11.3673 253.671 11.3673C252.331 11.3673 251.252 11.6962 250.435 12.3563C249.62 13.0145 249.211 13.8979 249.211 15.0051C249.211 15.7584 249.362 16.3805 249.666 16.8706C249.969 17.3629 250.478 17.8028 251.19 18.1891C251.9 18.5754 252.918 18.9674 254.236 19.3644C255.661 19.8043 256.813 20.2747 257.693 20.7756C258.57 21.2781 259.251 21.9252 259.732 22.7201C260.214 23.5161 260.455 24.5193 260.455 25.73C260.455 26.9432 260.163 28.0195 259.575 28.9603C258.99 29.9013 258.156 30.6344 257.08 31.1571C255.999 31.6794 254.749 31.9407 253.325 31.9407C250.645 31.9407 248.352 31.0406 246.447 29.2432L247.516 28.0515C248.394 28.8046 249.282 29.3739 250.185 29.76C251.085 30.148 252.121 30.3414 253.294 30.3414C254.844 30.3414 256.105 29.9337 257.08 29.1177C258.052 28.302 258.539 27.195 258.539 25.7927C258.539 24.9168 258.377 24.1939 258.052 23.6306C257.727 23.065 257.205 22.5789 256.482 22.1705C255.76 21.7627 254.738 21.3519 253.42 20.933C251.222 20.264 249.651 19.4895 248.708 18.6109C247.766 17.735 247.294 16.5415 247.294 15.0375C247.294 14.0339 247.562 13.1291 248.096 12.3241C248.629 11.5189 249.373 10.8932 250.326 10.4421C251.278 9.99343 252.371 9.7679 253.608 9.7679C254.928 9.7679 256.064 9.96148 257.017 10.3493Z"
            fill="#005ea9" />
        <path
            d="M1.83442 40.1686H275.168V1.83316H1.83442V40.1686ZM277.002 42H0V0.00157166H277.002V42Z"
            fill="#005ea9" />
        <path
            d="M41.7909 41.084H39.9563V0.917576H41.7909V41.084Z"
            fill="#005ea9" />
        <path
            d="M2.21795 42C2.06706 42 1.91682 41.9643 1.77711 41.8872C1.33255 41.6442 1.16981 41.0857 1.41348 40.6445L17.5315 11.3368C17.7103 11.0092 18.0724 10.8143 18.4429 10.8682C18.8144 10.9107 19.1218 11.1752 19.221 11.5352L23.9301 28.7782L38.4195 0.500614C38.6526 0.0501747 39.2119 -0.126976 39.6538 0.10186C40.1052 0.332661 40.285 0.883617 40.0532 1.33411L24.4854 31.717C24.3156 32.0531 23.9753 32.2513 23.5741 32.2103C23.1971 32.1716 22.8841 31.9064 22.7832 31.5413L18.047 14.202L3.02221 41.5244C2.85553 41.8281 2.53992 42 2.21795 42Z"
            fill="#005ea9" />
    </g>
    <defs>
        <clipPath id="clip_ng">
            <rect
                width="297"
                height="42"
                fill="#005ea9" />
        </clipPath>
    </defs>
</svg>
    